<svg width="598" height="640" viewBox="0 0 598 640" fill="none" xmlns="http://www.w3.org/2000/svg">
<path d="M276.238 321.543C247.58 372.48 249.857 432.555 277.129 479.932V322.682C278.084 380.769 310.012 431.284 357.084 458.531L415.659 559.977C388.471 560 360.92 553.123 335.683 538.553C310.446 523.983 290.701 503.535 277.129 479.954V597.083C253.572 583.512 233.147 563.79 218.576 538.553C203.984 513.316 197.129 485.742 197.152 458.531C197.219 403.774 225.811 351.295 276.238 321.543ZM277.129 322.682C277.115 321.803 277.107 320.921 277.107 320.038C276.669 320.291 276.672 321.287 276.238 321.543C276.524 321.033 276.814 320.524 277.107 320.016V320.013C225.853 349.61 197.22 403.299 197.152 458.531L138.576 559.977C124.959 536.442 117.129 509.141 117.129 480C117.129 391.633 188.743 320.013 277.107 320H277.115C277.12 319.993 277.125 319.985 277.129 319.977V322.682ZM517.107 181.469C517.129 208.658 510.252 236.21 495.682 261.447V261.469C481.12 286.692 460.687 306.429 437.123 320H554.213C540.642 343.558 520.919 363.983 495.682 378.553C470.445 393.146 442.871 400 415.659 399.977L277.168 320.023H277.142C306.739 371.277 360.428 399.909 415.659 399.977L517.107 458.553C493.572 472.17 466.292 480 437.129 480C407.966 480 380.641 472.17 357.107 458.531L277.142 320.023H277.129C336.34 320.023 387.994 287.841 415.659 240.045L517.107 181.469ZM277.168 320.023C328.414 349.586 389.199 347.546 437.045 320.023H277.168ZM138.553 80.0229C165.764 80.0002 193.316 86.8766 218.553 101.447C243.79 116.017 263.535 136.465 277.107 160.045V320L138.553 80.0229ZM277.129 42.9164C300.686 56.488 321.112 76.21 335.682 101.447V101.469C350.275 126.706 357.129 154.281 357.107 181.493L277.149 319.988L277.148 319.989C306.722 268.728 304.675 207.921 277.129 160.068V42.9164ZM415.682 80.0229C429.299 103.558 437.129 130.86 437.129 160C437.129 189.163 429.299 216.488 415.659 240.023L277.249 319.929C328.442 290.32 357.039 236.665 357.107 181.469L415.682 80.0229Z" fill="#C3C3C3"/>
<path d="M58.5762 378.554C102.733 302.062 200.568 275.822 277.09 319.978C188.733 319.999 117.129 391.616 117.129 479.978C117.129 509.114 124.957 536.413 138.57 559.945L197.129 458.53C197.106 485.719 203.983 513.293 218.553 538.553V538.576C233.123 563.813 253.549 583.535 277.106 597.106V640C217.899 640 166.224 607.8 138.558 559.986L117.129 597.106C40.6241 552.942 14.3891 455.081 58.5762 378.554ZM357.106 458.53C380.664 472.17 407.966 480 437.129 480C466.269 480 493.572 472.17 517.106 458.553L554.258 480C524.643 531.287 470.93 559.927 415.695 559.977L437.129 597.106C385.838 626.746 324.993 624.681 277.129 597.106V479.955L277.151 479.932C290.723 503.512 310.446 523.96 335.705 538.53C360.938 553.098 388.485 559.975 415.669 559.954L357.106 458.53ZM597.129 320C597.129 379.211 564.925 430.887 517.106 458.553L415.659 399.978C442.848 400 470.423 393.123 495.683 378.553H495.705C520.942 363.983 540.664 343.557 554.235 320H597.129ZM117.129 42.8936C168.42 13.2539 229.265 15.3191 277.129 42.8936V160.068C263.557 136.488 243.836 116.04 218.576 101.47C193.321 86.9018 165.773 80.0244 138.589 80.0449L277.115 319.978C277.12 319.978 277.124 319.978 277.129 319.978V320C277.116 319.992 277.103 319.985 277.09 319.978L0 160C29.6146 108.713 83.3275 80.0725 138.562 80.0225L117.129 42.8936ZM437.129 42.8711C488.416 72.4857 517.055 126.199 517.105 181.434L554.235 160C583.875 211.291 581.81 272.136 554.235 320H437.084L437.061 319.978C460.641 306.406 481.089 286.683 495.659 261.424C510.227 236.191 517.103 208.644 517.083 181.46L415.659 240.022C429.299 216.465 437.129 189.14 437.129 160C437.129 130.86 429.3 103.557 415.683 80.0225L437.129 42.8711ZM277.129 0C336.34 0 388.017 32.204 415.683 80.0225L357.106 181.47C357.129 154.281 350.253 126.707 335.683 101.447V101.424C321.112 76.187 300.686 56.4652 277.129 42.8936V0Z" fill="white"/>
<path d="M277.129 479.954C249.577 432.091 247.535 371.268 277.129 320V479.954ZM197.152 458.531C197.22 403.291 225.861 349.595 277.129 320L197.152 458.531ZM357.107 458.531C309.311 430.865 277.129 379.212 277.129 320L357.107 458.531ZM415.659 399.977C360.42 399.909 306.724 371.268 277.129 320L415.659 399.977ZM437.083 320C389.22 347.552 328.397 349.594 277.129 320H437.083ZM277.129 160.045C304.681 207.909 306.723 268.732 277.129 320V160.045ZM357.107 181.469C357.039 236.709 328.397 290.406 277.129 320L357.107 181.469ZM415.659 240.023C387.994 287.818 336.34 320 277.129 320L415.659 240.023Z" fill="white"/>
</svg>
